Patient4_TMGait_0pt2_01_right_18_EMG.mot
version=1
nRows=13
nColumns=33
inDegrees=no
endheader
time	1LAddLong	2LGlutMax	3LGlutMed	4LIliopsoas	5LSemiMemb	6LBicFemLong	7LRecFem	8LVastMed	9LVastLat	10LGasMed	11LTibAnt	12lTibPost	13LPeroneusLong	14LSol	15LExtDigLong	16LFlexDigLong	17RAddLong	18RGlutMax	19RGlutMed	20RIliopsoas	21RSemiMemb	22RBicFemLong	23RRecFem	24RVastMed	25RVastLat	26RGasMed	27RTibAnt	28RTibPost	29RPeroneusLong	30RSol	31RExtDigLong	32RFlexDigLong
41.865	0.003815	0.028992	-0.001068	0.025635	-0.023499	-0.0737	0.031891	0.010681	-0.043945	-0.027924	0.15335	0.019073	-0.029297	0.055237	-0.16739	0.001221	-0.030365	-0.011902	0.99487	0.029449	0.034637	0.028381	-0.42145	0.30289	-0.49301	-0.1239	0.072937	0.005493	0.55054	-0.29923	0.001373	-0.009155
41.866	0.003815	0.053406	0.015717	0.014648	-0.015106	-0.090179	-0.011749	-0.00351	0.008087	-0.030212	-0.21957	0.004272	0.042725	-0.039978	-0.2478	-0.005798	0.009155	-0.031433	0.51437	0.033875	0.006409	-0.058899	0.027924	0.16373	-0.21713	-0.20081	0.11429	-0.023956	-0.069427	0.069122	0.001068	0.000305
41.867	0.015411	0.009308	-0.003357	0.003357	0.005493	-0.10651	-0.00351	0.000763	0.015411	-0.031281	-0.33447	0.017548	0.098267	-0.016479	-0.21271	-0.020905	0.031891	-0.038147	0.15121	-0.032043	-0.023956	-0.093079	0.17197	0.05661	0.084381	-0.085449	0.15625	-0.018463	-0.042572	0.62637	0.00061	-0.009918
41.868	0.012665	-0.001984	-0.026245	0.020905	0.029755	-0.077515	-0.000763	-0.003967	0.072327	-0.034637	-0.31601	0.018005	0.076599	0.007629	-0.14282	-0.021057	0.037689	-0.055237	-0.095062	-0.006104	-0.04425	-0.13077	-0.030975	-0.12924	0.063934	-0.000763	0.016327	-0.023346	0.20279	0.41962	-0.002899	-0.01358
41.869	0.017548	-0.02243	-0.033875	0.022736	0.0177	-0.055695	0.019226	0.000153	0.14328	-0.027313	-0.27695	0.019379	0.068817	-0.085602	-0.000916	-0.013733	0.029297	-0.072174	-0.045624	-0.10178	-0.032501	-0.15274	-0.026093	-0.32654	0.067139	0.014343	-0.14999	-0.011749	-0.27954	0.16663	-0.00412	-0.007019
41.87	0.016022	-0.017395	-0.036316	0.011292	-0.007324	-0.05127	0.013733	-0.010529	0.22827	-0.012512	-0.15579	0.013428	0.023804	-0.14984	0.11627	-0.011139	0.034485	-0.068665	0.093079	-0.18005	0.026093	-0.10132	0.091858	-0.26825	-0.027161	0.063629	-0.11871	-0.002441	-0.33508	-0.068817	-0.002289	-0.002289
41.871	0.0177	-0.00946	0	0.011292	-0.001984	-0.08316	0.089874	-0.002594	0.16098	-0.009003	-0.13062	-0.001373	-0.021057	-0.16693	0.20371	-0.015106	0.024414	-0.1062	-0.19898	-0.19867	0.079956	0.015869	0.18249	-0.12711	-0.10193	0.071411	-0.011139	0.026398	0.65124	-0.17258	0.000916	-0.015411
41.872	0.016479	-0.023193	-0.031281	0.014954	0.02533	-0.058136	0.050964	0.000763	0.074768	-0.001221	-0.10056	0.00946	-0.026855	-0.088196	0.24078	0.008545	0.027313	-0.16846	-0.045471	-0.20462	0.071716	-0.009155	0.10422	0.014038	-0.093994	0.07019	0.067444	0.032196	1.0078	-0.21011	-0.00061	-0.012817
41.873	0.012512	-0.000153	-0.031281	0.007477	0.037689	-0.058899	0.02182	0.00885	-0.076141	0.001831	-0.018616	0.005035	-0.045471	-0.087891	0.17807	-0.010834	0.018768	-0.16953	0.083466	-0.095062	-0.16846	-0.061188	0.034485	0.071869	0.074921	0.045319	0.32623	-0.022125	-1.9815	0.11719	-0.001526	-0.012207
41.874	0.010986	-0.002899	-0.016327	-0.012817	0.03479	0.006409	0.067444	0.00473	-0.17502	0.001221	0.001678	-0.000153	-0.033417	-0.10773	0.1442	0.001373	0.017242	-0.060883	-0.024719	0.10513	-0.072479	-0.22858	-0.008698	0.20142	0.12634	0.016632	0.29083	-0.009918	-0.47211	0.032043	-0.003357	-0.014954
41.875	0.003662	0.004425	0.027924	-0.026093	0.014343	0.04837	0.15488	0.012512	-0.21561	-0.010834	-0.009308	0.005035	0.011139	-0.07843	0.43594	-0.018005	0.000916	-0.055389	0.039825	0.1973	0.066376	-0.15213	0.19104	0.26566	-0.005341	0.003052	0.03067	-0.007782	1.1708	-0.15106	-0.00061	-0.009766
41.876	0.001831	0.039215	0.057526	-0.025787	0.006409	0.044403	0.11719	0.018921	-0.09552	0.002289	-0.004425	0.00412	0.009766	-0.036469	0.16037	-0.009003	0.014954	-0.094452	0.10178	0.32044	0.091248	-0.35507	0.21545	0.20889	0.01236	0.001373	-0.088806	-0.003967	0.58823	-0.20599	0.001678	-0.014496
41.877	0.005493	0.031128	0.056915	-0.022125	-0.000763	0.032196	0.05661	0.040283	-0.047302	-0.005951	0.016632	0.014496	0.051117	0.002594	0.45517	-0.021515	0.037231	0.017242	0.020294	0.15869	0.027618	-0.49469	0.015869	0.054169	0.084381	0.007019	-0.44769	-0.003357	-0.12817	-0.23727	-0.000305	-0.009613
